<svg width="109" height="32" viewBox="0 0 109 32" fill="none" xmlns="http://www.w3.org/2000/svg">
<g id="Linea">
<path id="Vector" d="M28.5612 31.5589H24.0796V9.12891H28.5612V31.5589Z" fill="white" fill-opacity="0.2"/>
<path id="Vector_2" d="M44.7555 8.68945C47.2293 8.68945 49.2507 9.58185 50.8167 11.3661C52.3805 13.1506 53.1646 15.4193 53.1646 18.1699V31.5575H48.6827V18.8722C48.6827 17.1457 48.1422 15.7182 47.0605 14.5921C45.9788 13.4657 44.6428 12.9026 43.0497 12.9026C41.2561 12.9026 39.7914 13.4657 38.6535 14.5921C37.5157 15.7182 36.9455 17.1457 36.9455 18.8722V31.5575H32.4639V9.12981H36.9455V14.9234C37.5425 12.9929 38.5317 11.4705 39.9132 10.3581C41.2921 9.24567 42.9077 8.68945 44.7577 8.68945H44.7555Z" fill="white" fill-opacity="0.2"/>
<path id="Vector_3" d="M67.1371 8.68945C70.6365 8.68945 73.4823 9.97809 75.6725 12.5525C77.8627 15.1295 78.7597 18.2442 78.3609 21.9032H60.3075C60.6208 23.7178 61.4318 25.1892 62.741 26.3156C64.0502 27.4417 65.6275 28.005 67.4775 28.005C68.8994 28.005 70.1723 27.6458 71.2969 26.9296C72.4211 26.2137 73.2955 25.2402 73.9219 24.0099L77.678 25.7224C76.7113 27.6247 75.3301 29.1451 73.5388 30.2874C71.7475 31.43 69.6835 32.0002 67.3491 32.0002C64.0773 32.0002 61.3305 30.8878 59.111 28.6654C56.8915 26.4431 55.7808 23.676 55.7808 20.3692C55.7808 17.0623 56.8691 14.2906 59.0457 12.0498C61.2223 9.81128 63.9173 8.69201 67.1349 8.69201L67.1371 8.68945ZM67.1371 12.6846C65.4856 12.6846 64.0571 13.2038 62.847 14.2442C61.6369 15.2826 60.8326 16.6359 60.4359 18.3043H73.8385C73.4688 16.6359 72.678 15.2826 71.4701 14.2442C70.2603 13.2061 68.8158 12.6846 67.1371 12.6846Z" fill="white" fill-opacity="0.2"/>
<path id="Vector_4" d="M90.7512 8.68945C93.3696 8.68945 95.5033 9.3917 97.1526 10.7962C98.8022 12.2004 99.629 14.2212 99.629 16.8537V31.5598H95.1473V25.5903C93.8088 29.8636 91.1207 32.0002 87.0805 32.0002C85.2012 32.0002 83.6377 31.4232 82.3847 30.2666C81.132 29.1104 80.5078 27.5971 80.5078 25.7247C80.5078 23.53 81.2604 21.8824 82.7699 20.7862C84.2776 19.6903 86.1995 19.0088 88.5317 18.7446L92.7565 18.3043C94.3497 18.1585 95.1473 17.4261 95.1473 16.1099C95.1473 15.0276 94.7416 14.1631 93.9306 13.5212C93.1194 12.877 92.0604 12.5551 90.7512 12.5551C89.442 12.5551 88.2815 12.9072 87.3576 13.6094C86.434 14.3114 85.8436 15.3359 85.5868 16.6823L81.1477 15.5838C81.5466 13.4774 82.6122 11.8019 84.3495 10.5574C86.0847 9.31513 88.2184 8.69201 90.7512 8.69201V8.68945ZM88.5317 28.2669C90.3817 28.2669 91.9453 27.6296 93.2254 26.3572C94.5052 25.085 95.1451 23.5997 95.1451 21.9009V20.6726C94.8047 21.259 93.9779 21.6228 92.6688 21.7688L88.5295 22.2949C87.4478 22.4432 86.587 22.7699 85.9471 23.282C85.3072 23.7941 84.9872 24.4895 84.9872 25.3677C84.9872 26.2462 85.3072 26.9481 85.9471 27.4742C86.587 28.0002 87.4478 28.2644 88.5295 28.2644L88.5317 28.2669Z" fill="white" fill-opacity="0.2"/>
<path id="Vector_5" d="M20.9919 31.5589H0.291016V9.12891H5.02738V27.2136H20.9919V31.5589Z" fill="white" fill-opacity="0.2"/>
<path id="Vector_6" d="M103.854 8.69005C106.187 8.69005 108.079 6.74472 108.079 4.3451C108.079 1.94537 106.187 0 103.854 0C101.52 0 99.6289 1.94537 99.6289 4.3451C99.6289 6.74472 101.52 8.69005 103.854 8.69005Z" fill="white" fill-opacity="0.2"/>
</g>
</svg>
