<svg width="163" height="32" viewBox="0 0 163 32" fill="none" xmlns="http://www.w3.org/2000/svg">
<g id="full_logo_zksync-white 1" clip-path="url(#clip0_967_18269)">
<path id="Vector" fill-rule="evenodd" clip-rule="evenodd" d="M55.9891 15.9635L40.1073 0.0078125V11.6993L24.3364 23.3981L40.1073 23.4055V31.9265L55.9891 15.9635Z" fill="white" fill-opacity="0.2"/>
<path id="Vector_2" fill-rule="evenodd" clip-rule="evenodd" d="M0 15.963L15.8818 31.9261V20.3529L31.5418 8.64665L15.8891 8.63926V0L0 15.963Z" fill="white" fill-opacity="0.2"/>
<path id="Vector_3" d="M80.4434 25.3633H68.2568V21.8455L75.2333 14.0192H68.4342V10.5605H80.3178V13.901L73.1344 21.8751H80.4434V25.3633Z" fill="white" fill-opacity="0.2"/>
<path id="Vector_4" d="M97.0716 10.5604L91.1741 16.7905L97.1898 25.3632H92.3122L88.4175 19.7096L86.7695 21.4537V25.3632H82.7861V3.58398H86.7695V16.0736L91.8614 10.5678H97.0716V10.5604Z" fill="white" fill-opacity="0.2"/>
<path id="Vector_5" d="M114.394 9.12016L110.684 10.2657C110.544 9.50446 110.167 8.80977 109.546 8.18899C108.925 7.5682 108.016 7.25781 106.819 7.25781C105.844 7.25781 105.046 7.53125 104.425 8.07074C103.804 8.59545 103.494 9.22363 103.494 9.96266C103.494 11.2634 104.262 12.0689 105.799 12.3719L108.763 12.9409C110.64 13.3031 112.096 14.0569 113.138 15.195C114.18 16.3405 114.697 17.6855 114.697 19.2301C114.697 20.9964 114.003 22.5409 112.598 23.8638C111.224 25.1645 109.361 25.8222 107.026 25.8222C105.689 25.8222 104.484 25.6227 103.405 25.2236C102.326 24.8246 101.461 24.2924 100.804 23.6273C100.146 22.9474 99.6285 22.2306 99.2442 21.4915C98.882 20.7303 98.6677 19.947 98.5864 19.1414L102.422 18.1215C102.518 19.267 102.961 20.2204 103.737 20.9816C104.536 21.7428 105.644 22.1271 107.063 22.1271C108.142 22.1271 108.977 21.8832 109.576 21.4028C110.197 20.9225 110.507 20.2869 110.507 19.5109C110.507 18.8901 110.278 18.358 109.82 17.9146C109.384 17.4564 108.748 17.146 107.935 16.9834L104.972 16.3848C103.257 16.0227 101.897 15.3132 100.9 14.249C99.9019 13.1848 99.4067 11.862 99.4067 10.2804C99.4067 8.39592 100.124 6.807 101.565 5.52848C103.021 4.24257 104.765 3.59961 106.804 3.59961C108.024 3.59961 109.11 3.76959 110.071 4.10954C111.032 4.44949 111.8 4.91508 112.377 5.49153C112.953 6.05319 113.404 6.63702 113.722 7.23564C114.025 7.82686 114.254 8.45504 114.394 9.12016Z" fill="white" fill-opacity="0.2"/>
<path id="Vector_6" d="M121.401 31.2017H117.181L120.654 23.501L114.395 10.5605H118.858L122.783 19.222L126.404 10.5605H130.653L121.401 31.2017Z" fill="white" fill-opacity="0.2"/>
<path id="Vector_7" d="M136.151 16.8508V25.3644H132.168V10.5616H136.033V12.3944C136.454 11.6702 137.053 11.1233 137.829 10.739C138.605 10.3547 139.425 10.1699 140.283 10.1699C142.019 10.1699 143.335 10.7242 144.236 11.8253C145.153 12.9117 145.611 14.3159 145.611 16.0378V25.3644H141.628V16.7325C141.628 15.8531 141.398 15.1362 140.94 14.5967C140.504 14.0572 139.824 13.7838 138.901 13.7838C138.065 13.7838 137.393 14.072 136.898 14.6558C136.403 15.2397 136.151 15.9713 136.151 16.8508Z" fill="white" fill-opacity="0.2"/>
<path id="Vector_8" d="M155.374 13.8123C154.317 13.8123 153.43 14.1819 152.706 14.9283C151.989 15.6673 151.627 16.6798 151.627 17.9657C151.627 19.2516 151.989 20.2715 152.706 21.0327C153.445 21.7717 154.339 22.1486 155.403 22.1486C156.342 22.1486 157.088 21.9047 157.65 21.4243C158.212 20.9218 158.589 20.3306 158.788 19.6507L162.291 20.8257C161.929 22.1929 161.153 23.3606 159.956 24.3435C158.759 25.3264 157.244 25.8142 155.403 25.8142C153.208 25.8142 151.361 25.0752 149.861 23.5897C148.383 22.0821 147.644 20.2123 147.644 17.9657C147.644 15.6969 148.375 13.8271 149.831 12.3417C151.309 10.8562 153.127 10.1172 155.278 10.1172C157.155 10.1172 158.692 10.6049 159.889 11.5879C161.087 12.5486 161.855 13.7237 162.195 15.1056L158.633 16.3103C158.16 14.6401 157.074 13.8123 155.374 13.8123Z" fill="white" fill-opacity="0.2"/>
</g>
<defs>
<clipPath id="clip0_967_18269">
<rect width="162.291" height="32" fill="white"/>
</clipPath>
</defs>
</svg>
