<svg width="20" height="20" viewBox="0 0 20 20" fill="none" xmlns="http://www.w3.org/2000/svg">
<g id="diagonal-arrow">
<path id="Vector" d="M12.5715 6.25065H5.4165C5.19549 6.25065 4.98353 6.16285 4.82725 6.00657C4.67097 5.85029 4.58317 5.63833 4.58317 5.41732C4.58317 5.1963 4.67097 4.98434 4.82725 4.82806C4.98353 4.67178 5.19549 4.58398 5.4165 4.58398L13.8715 4.58398C14.0744 4.58388 14.2754 4.62376 14.4629 4.70137C14.6504 4.77897 14.8207 4.89277 14.9642 5.03626C15.1077 5.17975 15.2215 5.35011 15.2991 5.53761C15.3767 5.72511 15.4166 5.92606 15.4165 6.12898V14.584C15.4165 14.805 15.3287 15.017 15.1724 15.1732C15.0161 15.3295 14.8042 15.4173 14.5832 15.4173C14.3622 15.4173 14.1502 15.3295 13.9939 15.1732C13.8376 15.017 13.7498 14.805 13.7498 14.584V7.42898L5.17234 16.0065C5.01517 16.1583 4.80467 16.2423 4.58617 16.2404C4.36767 16.2385 4.15866 16.1508 4.00416 15.9963C3.84965 15.8418 3.76201 15.6328 3.76011 15.4143C3.75821 15.1958 3.84221 14.9853 3.994 14.8281L12.5715 6.25065Z" fill="white" fill-opacity="0.4"/>
</g>
</svg>
