<svg width="40" height="40" viewBox="0 0 40 40" fill="none" xmlns="http://www.w3.org/2000/svg">
<g id="marketing-blog">
<path id="Vector" d="M32.4 2.40039H7.6C4.512 2.40039 2 4.91239 2 8.00039V32.0004C2 35.0884 4.512 37.6004 7.6 37.6004H32.4C35.488 37.6004 38 35.0884 38 32.0004V8.00039C38 4.91239 35.488 2.40039 32.4 2.40039ZM7.6 4.00039H32.4C34.604 4.00039 36.4 5.79639 36.4 8.00039V12.0004H3.6V8.00039C3.6 5.79639 5.396 4.00039 7.6 4.00039ZM32.4 36.0004H7.6C5.396 36.0004 3.6 34.2044 3.6 32.0004V13.6004H36.4V32.0004C36.4 34.2044 34.604 36.0004 32.4 36.0004ZM6.8 8.00039C6.8 7.56039 7.16 7.20039 7.6 7.20039H13.2C13.64 7.20039 14 7.56039 14 8.00039C14 8.44039 13.64 8.80039 13.2 8.80039H7.6C7.16 8.80039 6.8 8.44039 6.8 8.00039ZM22.236 8.56839C22.084 8.41639 22 8.21239 22 8.00039C22 7.94839 22.004 7.89639 22.016 7.84439C22.024 7.79239 22.04 7.74439 22.06 7.69239C22.08 7.64439 22.108 7.60039 22.136 7.55639C22.164 7.51239 22.196 7.47239 22.236 7.43639C22.532 7.13639 23.068 7.13639 23.364 7.43639C23.516 7.58439 23.6 7.78839 23.6 8.00039C23.6 8.05239 23.596 8.10439 23.584 8.15639C23.572 8.20839 23.56 8.26039 23.54 8.30839C23.52 8.35639 23.492 8.40039 23.464 8.44439C23.436 8.48839 23.404 8.52839 23.364 8.56839C23.328 8.60439 23.288 8.63639 23.244 8.66439C23.2 8.69639 23.156 8.72039 23.108 8.74039C23.056 8.76039 23.008 8.77639 22.956 8.78439C22.904 8.79639 22.852 8.80039 22.8 8.80039C22.748 8.80039 22.696 8.79639 22.644 8.78439C22.592 8.77639 22.544 8.76039 22.492 8.74039C22.444 8.72039 22.4 8.69639 22.356 8.66439C22.312 8.63639 22.272 8.60439 22.236 8.56839ZM17.216 8.15639C17.204 8.10439 17.2 8.05239 17.2 8.00039C17.2 7.78839 17.284 7.58439 17.432 7.43239C17.62 7.24839 17.896 7.16439 18.156 7.21639C18.208 7.22439 18.256 7.24039 18.304 7.26039C18.356 7.28039 18.4 7.30439 18.444 7.33639C18.488 7.36439 18.528 7.39639 18.564 7.43239C18.716 7.58439 18.8 7.78839 18.8 8.00039C18.8 8.05239 18.796 8.10439 18.784 8.15639C18.776 8.20839 18.76 8.25639 18.74 8.30439C18.72 8.35639 18.692 8.40039 18.664 8.44439C18.636 8.48839 18.604 8.52839 18.564 8.56439C18.528 8.60439 18.488 8.63639 18.444 8.66439C18.4 8.69639 18.356 8.72039 18.304 8.74039C18.256 8.76039 18.208 8.77639 18.156 8.78439C18.104 8.79639 18.052 8.80039 18 8.80039C17.788 8.80039 17.584 8.71639 17.432 8.56439C17.396 8.52839 17.364 8.48839 17.336 8.44439C17.304 8.40039 17.28 8.35639 17.26 8.30439C17.24 8.25639 17.224 8.20839 17.216 8.15639ZM27.036 8.56439C26.884 8.41639 26.8 8.21239 26.8 8.00039C26.8 7.78839 26.884 7.58039 27.036 7.43639C27.328 7.13639 27.868 7.13639 28.164 7.43639C28.316 7.58439 28.4 7.78839 28.4 8.00039C28.4 8.21239 28.316 8.41639 28.164 8.56439C28.016 8.71639 27.812 8.80039 27.6 8.80039C27.388 8.80039 27.184 8.71639 27.036 8.56439ZM31.836 8.56439C31.684 8.41639 31.6 8.21239 31.6 8.00039C31.6 7.78839 31.684 7.58439 31.836 7.43639C32.132 7.13639 32.668 7.13639 32.964 7.43639C33.116 7.58439 33.2 7.78839 33.2 8.00039C33.2 8.21239 33.116 8.41639 32.964 8.56439C32.816 8.71639 32.612 8.80039 32.4 8.80039C32.188 8.80039 31.984 8.71639 31.836 8.56439ZM33.2 17.6004C33.2 18.0404 32.84 18.4004 32.4 18.4004H17.2C16.76 18.4004 16.4 18.0404 16.4 17.6004C16.4 17.1604 16.76 16.8004 17.2 16.8004H32.4C32.84 16.8004 33.2 17.1604 33.2 17.6004ZM33.2 22.4004C33.2 22.8404 32.84 23.2004 32.4 23.2004H17.2C16.76 23.2004 16.4 22.8404 16.4 22.4004C16.4 21.9604 16.76 21.6004 17.2 21.6004H32.4C32.84 21.6004 33.2 21.9604 33.2 22.4004ZM33.2 27.2004C33.2 27.6404 32.84 28.0004 32.4 28.0004H7.6C7.16 28.0004 6.8 27.6404 6.8 27.2004C6.8 26.7604 7.16 26.4004 7.6 26.4004H32.4C32.84 26.4004 33.2 26.7604 33.2 27.2004ZM33.2 32.0004C33.2 32.4404 32.84 32.8004 32.4 32.8004H7.6C7.16 32.8004 6.8 32.4404 6.8 32.0004C6.8 31.5604 7.16 31.2004 7.6 31.2004H32.4C32.84 31.2004 33.2 31.5604 33.2 32.0004ZM10 23.2004C11.764 23.2004 13.2 21.7644 13.2 20.0004C13.2 18.2364 11.764 16.8004 10 16.8004C8.236 16.8004 6.8 18.2364 6.8 20.0004C6.8 21.7644 8.236 23.2004 10 23.2004ZM10 18.4004C10.884 18.4004 11.6 19.1164 11.6 20.0004C11.6 20.8844 10.884 21.6004 10 21.6004C9.116 21.6004 8.4 20.8844 8.4 20.0004C8.4 19.1164 9.116 18.4004 10 18.4004Z" fill="white" fill-opacity="0.2"/>
</g>
</svg>
