<svg width="16" height="12" viewBox="0 0 16 12" fill="none" xmlns="http://www.w3.org/2000/svg">
<path d="M11.3138 12L9.82985 11.6494C10.0009 10.4204 10.3989 9.35344 11.0237 8.44863C11.6411 7.53629 12.3849 6.94439 13.2552 6.67295L0 6.67295L0 5.32705L13.2552 5.32705C12.3849 5.05561 11.6411 4.46748 11.0237 3.56268C10.3989 2.65033 10.0009 1.57964 9.82985 0.350613L11.3138 0C11.4031 1.56833 11.8754 2.81621 12.7308 3.74364C13.5788 4.66353 14.6685 5.19133 16 5.32705V6.67295C14.6685 6.80867 13.5788 7.34025 12.7308 8.26767C11.8754 9.18756 11.4031 10.4317 11.3138 12Z" fill="white" fill-opacity="0.2"/>
</svg>
